<?xml version="1.0" encoding="utf-8"?>
<!-- Generator: Adobe Illustrator 17.0.0, SVG Export Plug-In . SVG Version: 6.00 Build 0)  -->
<!DOCTYPE svg PUBLIC "-//W3C//DTD SVG 1.0//EN" "http://www.w3.org/TR/2001/REC-SVG-20010904/DTD/svg10.dtd">
<svg version="1.0" id="Layer_1" xmlns="http://www.w3.org/2000/svg" xmlns:xlink="http://www.w3.org/1999/xlink" x="0px" y="0px"
	 width="27px" height="420px" viewBox="0 0 27 420" enable-background="new 0 0 27 420" xml:space="preserve">
<g>
	<rect x="2.25" y="35.179" fill="#F0A446" width="22.5" height="335.583"/>
	<path fill="#F59FC6" d="M16.246,2.096c4.678,0,8.504,3.827,8.504,8.504v14.327H2.25V10.6c0-4.677,3.827-8.504,8.504-8.504H16.246z"
		/>
	<g>
		<path fill="#D388B4" d="M24.75,10.6c0-4.677-3.826-8.504-8.504-8.504H13.5c4.309,0.28,4.75,6.125,4.75,6.125v16.706h6.5V10.6z"/>
	</g>
	<rect x="2.25" y="25.179" fill="#B3B3B3" width="22.5" height="20"/>
	<rect x="2.25" y="45.179" fill="#F9B041" width="7.5" height="329.333"/>
	<rect x="8.75" y="45.179" fill="#F0A446" width="9.5" height="329.333"/>
	<rect x="18.25" y="45.179" fill="#D18A30" width="6.5" height="329.333"/>
	<line fill="#EEDEC4" x1="2.25" y1="374.512" x2="24.75" y2="374.512"/>
	<path fill="#EDDDC4" d="M8.751,374.512H7c0,0.352,0.037,0.939,0.103,1.718c1.35,21.837,5.166,36.654,5.166,36.654
		c0.667,2.695,1.757,2.695,2.425,0c0,0,3.816-14.817,5.166-36.654c0.066-0.778,0.101-1.366,0.101-1.718h-1.709
		c0-2.071-2.68-3.75-4.751-3.75S8.751,372.441,8.751,374.512z"/>
	<path fill="#DCC7AA" d="M18.248,374.601h0.004l-3.906,31.066c0.082,0.014,0.322,0.714,0.416,0.741
		c0.408,0.118,0.43,0.264,0.719,0.547c0.711,0.7,1.484-0.95,2.01-1.05c0.426-0.08,0.643-0.061,0.91,0.119
		c2.084-7.764,4.859-16.431,6.174-29.589c0.113-0.829,0.176-1.457,0.176-1.835h-0.002c0-2.071-1.098-3.751-3.17-3.751
		C19.508,370.85,18.248,372.53,18.248,374.601z"/>
	<path fill="#FBEEDB" d="M2.25,374.601L2.25,374.601c0.002,0.378,0.064,1.006,0.177,1.835c2.553,21.41,6.176,30.391,6.176,30.391
		c0.798-0.959,1.96-1.729,2.889-1.478c0.57,0.155,0.707,0.389,0.894,0.77l-3.651-31.518H8.75c0-2.071-1.258-3.751-3.329-3.751
		S2.25,372.53,2.25,374.601z"/>
	<g>
		<path fill="#4D4D4D" d="M8.603,406.827c1.523,5.578,2.687,8.904,2.687,8.904c0.564,1.413,1.305,2.131,2.049,2.165
			c0.006,0,0.012,0.002,0.018,0.002v0.006c0.008,0,0.016-0.003,0.023-0.003c0.768,0.009,1.535-0.714,2.117-2.17
			c0,0,1.275-3.641,2.904-9.706c-0.01-0.008-0.021-0.012-0.033-0.019c-0.266-0.18-0.598-0.261-1.023-0.18
			c-0.525,0.1-1.049,1.393-1.76,0.692c-0.289-0.283-0.576-0.685-0.984-0.804c-0.094-0.026-0.172-0.034-0.254-0.048
			c-0.955-0.148-1.286,0.584-1.631,1.355c-0.104-0.317-0.192-0.628-0.329-0.904c-0.188-0.381-0.47-0.693-1.04-0.849
			C10.417,405.017,9.401,405.868,8.603,406.827z"/>
		<path fill="#DCC7AA" d="M9.251,415.448c0.008,0,0.016-0.002,0.023-0.003c-0.008,0-0.016-0.002-0.023-0.002V415.448z"/>
		<g>
			<path fill="#4D4D4D" d="M13.338,417.897c0.006,0,0.012,0.003,0.018,0.003l0.99-12.23c-0.955-0.148-1.286,0.584-1.631,1.354
				c-0.104-0.316-0.192-0.628-0.329-0.904L13.338,417.897z"/>
			<path fill="#666666" d="M11.346,405.271c-0.929-0.252-1.944,0.599-2.743,1.557c1.523,5.579,2.687,8.904,2.687,8.904
				c0.564,1.413,1.305,2.132,2.049,2.165l-0.952-11.777C12.198,405.74,11.916,405.426,11.346,405.271z"/>
			<path fill="#333333" d="M14.6,405.717c-0.094-0.027-0.172-0.035-0.254-0.048l-0.99,12.23c0.008,0,0.016,0.002,0.023,0.002
				c0.768,0.009,1.535-0.714,2.117-2.17c0,0,1.275-3.641,2.904-9.706c-0.01-0.007-0.021-0.012-0.033-0.019
				c-0.266-0.18-0.598-0.26-1.023-0.18c-0.525,0.1-1.049,1.393-1.76,0.692C15.295,406.237,15.008,405.835,14.6,405.717z"/>
		</g>
	</g>
	<polygon opacity="0.4" fill="#999999" points="18.105,45.034 13.5,25.179 24.75,25.179 24.75,45.179 	"/>
	
		<line fill="none" stroke="#808080" stroke-width="4" stroke-linecap="round" stroke-linejoin="round" stroke-miterlimit="10" x1="2.901" y1="45.179" x2="24.1" y2="45.179"/>
	
		<line fill="none" stroke="#808080" stroke-width="4" stroke-linecap="round" stroke-linejoin="round" stroke-miterlimit="10" x1="2.901" y1="25.179" x2="24.1" y2="25.179"/>
	
		<line fill="none" stroke="#808080" stroke-width="2" stroke-linecap="round" stroke-linejoin="round" stroke-miterlimit="10" x1="2.255" y1="39.484" x2="24.746" y2="39.484"/>
	
		<line fill="none" stroke="#808080" stroke-width="2" stroke-linecap="round" stroke-linejoin="round" stroke-miterlimit="10" x1="2.255" y1="30.875" x2="24.746" y2="30.875"/>
	<g opacity="0.87">
		<path fill="#2B2A2A" d="M9.4,59.942v14.557c0,0.942,0.763,1.705,1.704,1.705h4.934c0.942,0,1.705-0.763,1.705-1.705V59.942
			c0-0.94-0.763-1.703-1.705-1.703h-4.934C10.163,58.239,9.4,59.003,9.4,59.942z M16.097,69.944v0.947l-3.211,2.445h3.211v1.097
			h-5.052v-1.024l3.111-2.368h-3.111v-1.097H16.097z M13.572,64.034c0.362,0,0.7,0.068,1.015,0.202
			c0.315,0.136,0.592,0.322,0.829,0.559c0.237,0.24,0.425,0.524,0.564,0.853c0.136,0.329,0.204,0.688,0.204,1.078
			s-0.068,0.749-0.204,1.076c-0.139,0.326-0.322,0.611-0.557,0.848c-0.233,0.237-0.507,0.423-0.822,0.554
			c-0.315,0.134-0.653,0.2-1.015,0.2h-0.014c-0.361,0-0.699-0.068-1.014-0.202c-0.316-0.134-0.592-0.322-0.83-0.559
			c-0.238-0.24-0.425-0.521-0.563-0.853c-0.137-0.329-0.206-0.688-0.206-1.078c0-0.39,0.068-0.747,0.206-1.076
			c0.137-0.327,0.322-0.608,0.556-0.848c0.234-0.237,0.507-0.423,0.822-0.554c0.316-0.132,0.653-0.2,1.015-0.2H13.572z
			 M16.097,60.008v3.74h-0.879l-1.374-1.682c-0.132-0.16-0.247-0.294-0.351-0.404c-0.103-0.11-0.202-0.202-0.295-0.27
			c-0.094-0.07-0.186-0.12-0.274-0.153c-0.089-0.031-0.187-0.047-0.292-0.047c-0.216,0-0.379,0.063-0.49,0.188
			c-0.11,0.124-0.166,0.289-0.166,0.491c0,0.197,0.055,0.371,0.166,0.524c0.112,0.15,0.282,0.319,0.513,0.507l-0.628,0.78
			c-0.169-0.124-0.319-0.251-0.45-0.378c-0.132-0.127-0.242-0.265-0.331-0.411c-0.089-0.148-0.157-0.31-0.203-0.489
			c-0.046-0.176-0.069-0.378-0.069-0.606c0-0.258,0.038-0.496,0.112-0.709c0.075-0.214,0.18-0.397,0.315-0.55
			c0.134-0.15,0.298-0.268,0.49-0.352c0.193-0.085,0.406-0.127,0.642-0.127h0.014c0.213,0,0.401,0.028,0.567,0.082
			c0.166,0.056,0.322,0.139,0.469,0.247c0.147,0.108,0.295,0.247,0.44,0.413c0.148,0.169,0.308,0.364,0.479,0.585l0.637,0.822
			v-2.201H16.097z"/>
		<path fill="#2B2A2A" d="M12.454,65.627c-0.144,0.136-0.26,0.298-0.343,0.486c-0.085,0.188-0.127,0.392-0.127,0.613
			c0,0.228,0.041,0.432,0.123,0.618c0.081,0.186,0.195,0.343,0.338,0.477c0.144,0.132,0.312,0.235,0.502,0.31
			c0.19,0.075,0.393,0.11,0.611,0.11h0.014c0.216,0,0.42-0.035,0.613-0.11c0.193-0.075,0.362-0.181,0.505-0.317
			c0.146-0.139,0.258-0.298,0.343-0.484c0.085-0.186,0.127-0.392,0.127-0.618c0-0.221-0.04-0.425-0.122-0.613
			c-0.082-0.188-0.195-0.348-0.341-0.479c-0.143-0.134-0.31-0.237-0.5-0.31c-0.19-0.075-0.395-0.113-0.611-0.113h-0.014
			c-0.216,0-0.422,0.038-0.613,0.113C12.766,65.383,12.597,65.488,12.454,65.627z"/>
	</g>
</g>
</svg>
