<?xml version="1.0" encoding="utf-8"?>
<!-- Generator: Adobe Illustrator 17.0.0, SVG Export Plug-In . SVG Version: 6.00 Build 0)  -->
<!DOCTYPE svg PUBLIC "-//W3C//DTD SVG 1.0//EN" "http://www.w3.org/TR/2001/REC-SVG-20010904/DTD/svg10.dtd">
<svg version="1.0" id="Layer_1" xmlns="http://www.w3.org/2000/svg" xmlns:xlink="http://www.w3.org/1999/xlink" x="0px" y="0px"
	 width="27px" height="139.977px" viewBox="0 0 27 139.977" enable-background="new 0 0 27 139.977" xml:space="preserve">
<g>
	<g>
		<rect x="8.75" y="45.179" fill="#F0A446" width="9.5" height="94.821"/>
		<rect x="2.25" y="45.179" fill="#D18A30" width="6.5" height="94.821"/>
		<rect x="18.304" y="45.179" fill="#F9B041" width="6.446" height="94.821"/>
	</g>
	<path fill="#F59FC6" d="M10.754,2.096c-4.678,0-8.504,3.827-8.504,8.504v14.327h22.5V10.6c0-4.677-3.827-8.504-8.504-8.504H10.754z
		"/>
	<g>
		<path fill="#D388B4" d="M2.25,10.6c0-4.677,3.826-8.504,8.504-8.504H13.5c-4.309,0.28-4.75,6.125-4.75,6.125v16.706h-6.5V10.6z"/>
	</g>
	<rect x="2.25" y="25.179" fill="#B3B3B3" width="22.5" height="20"/>
	<polygon opacity="0.4" fill="#999999" points="8.894,45.034 13.5,25.179 2.25,25.179 2.25,45.179 	"/>
	
		<line fill="none" stroke="#808080" stroke-width="4" stroke-linecap="round" stroke-linejoin="round" stroke-miterlimit="10" x1="24.099" y1="45.179" x2="2.9" y2="45.179"/>
	
		<line fill="none" stroke="#808080" stroke-width="4" stroke-linecap="round" stroke-linejoin="round" stroke-miterlimit="10" x1="24.099" y1="25.179" x2="2.9" y2="25.179"/>
	
		<line fill="none" stroke="#808080" stroke-width="2" stroke-linecap="round" stroke-linejoin="round" stroke-miterlimit="10" x1="24.745" y1="39.484" x2="2.254" y2="39.484"/>
	
		<line fill="none" stroke="#808080" stroke-width="2" stroke-linecap="round" stroke-linejoin="round" stroke-miterlimit="10" x1="24.745" y1="30.875" x2="2.254" y2="30.875"/>
	<g opacity="0.87">
		<path fill="#2B2A2A" d="M9.4,59.942v14.557c0,0.942,0.763,1.705,1.704,1.705h4.934c0.942,0,1.705-0.763,1.705-1.705V59.942
			c0-0.94-0.763-1.703-1.705-1.703h-4.934C10.163,58.239,9.4,59.003,9.4,59.942z M16.097,69.944v0.947l-3.211,2.445h3.211v1.097
			h-5.052v-1.024l3.111-2.368h-3.111v-1.097H16.097z M13.572,64.034c0.362,0,0.7,0.068,1.015,0.202
			c0.315,0.136,0.592,0.322,0.829,0.559c0.237,0.24,0.425,0.524,0.564,0.853c0.136,0.329,0.204,0.688,0.204,1.078
			s-0.068,0.749-0.204,1.076c-0.139,0.326-0.322,0.611-0.557,0.848c-0.233,0.237-0.507,0.423-0.822,0.554
			c-0.315,0.134-0.653,0.2-1.015,0.2h-0.014c-0.361,0-0.699-0.068-1.014-0.202c-0.316-0.134-0.592-0.322-0.83-0.559
			c-0.238-0.24-0.425-0.521-0.563-0.853c-0.137-0.329-0.206-0.688-0.206-1.078c0-0.39,0.068-0.747,0.206-1.076
			c0.137-0.327,0.322-0.608,0.556-0.848c0.234-0.237,0.507-0.423,0.822-0.554c0.316-0.132,0.653-0.2,1.015-0.2H13.572z
			 M16.097,60.008v3.74h-0.879l-1.374-1.682c-0.132-0.16-0.247-0.294-0.351-0.404c-0.103-0.11-0.202-0.202-0.295-0.27
			c-0.094-0.07-0.186-0.12-0.274-0.153c-0.089-0.031-0.187-0.047-0.292-0.047c-0.216,0-0.379,0.063-0.49,0.188
			c-0.11,0.124-0.166,0.289-0.166,0.491c0,0.197,0.055,0.371,0.166,0.524c0.112,0.15,0.282,0.319,0.513,0.507l-0.628,0.78
			c-0.169-0.124-0.319-0.251-0.45-0.378c-0.132-0.127-0.242-0.265-0.331-0.411c-0.089-0.148-0.157-0.31-0.203-0.489
			c-0.046-0.176-0.069-0.378-0.069-0.606c0-0.258,0.038-0.496,0.112-0.709c0.075-0.214,0.18-0.397,0.315-0.55
			c0.134-0.15,0.298-0.268,0.49-0.352c0.193-0.085,0.406-0.127,0.642-0.127h0.014c0.213,0,0.401,0.028,0.567,0.082
			c0.166,0.056,0.322,0.139,0.469,0.247c0.147,0.108,0.295,0.247,0.44,0.413c0.148,0.169,0.308,0.364,0.479,0.585l0.637,0.822
			v-2.201H16.097z"/>
		<path fill="#2B2A2A" d="M12.454,65.627c-0.144,0.136-0.26,0.298-0.343,0.486c-0.085,0.188-0.127,0.392-0.127,0.613
			c0,0.228,0.041,0.432,0.123,0.618c0.081,0.186,0.195,0.343,0.338,0.477c0.144,0.132,0.312,0.235,0.502,0.31
			c0.19,0.075,0.393,0.11,0.611,0.11h0.014c0.216,0,0.42-0.035,0.613-0.11c0.193-0.075,0.362-0.181,0.505-0.317
			c0.146-0.139,0.258-0.298,0.343-0.484c0.085-0.186,0.127-0.392,0.127-0.618c0-0.221-0.04-0.425-0.122-0.613
			c-0.082-0.188-0.195-0.348-0.341-0.479c-0.143-0.134-0.31-0.237-0.5-0.31c-0.19-0.075-0.395-0.113-0.611-0.113h-0.014
			c-0.216,0-0.422,0.038-0.613,0.113C12.766,65.383,12.597,65.488,12.454,65.627z"/>
	</g>
</g>
</svg>
